HIERARCHY
ROOT hip
{
  OFFSET 0 0 0
  CHANNELS 6 Xposition Yposition Zposition Zrotation Yrotation Xrotation
  JOINT abdomen
  {
    OFFSET 0 20.6881 -0.73152
    CHANNELS 3 Zrotation Xrotation Yrotation
    JOINT chest
    {
      OFFSET 0 11.7043 -0.48768
      CHANNELS 3 Zrotation Xrotation Yrotation
      JOINT neck
      {
        OFFSET 0 22.1894 -2.19456
        CHANNELS 3 Zrotation Xrotation Yrotation
        JOINT head
        {
          OFFSET -0.24384 7.07133 1.2192
          CHANNELS 3 Zrotation Xrotation Yrotation
          JOINT leftEye
          {
            OFFSET 4.14528 8.04674 8.04672
            CHANNELS 3 Zrotation Xrotation Yrotation
            End Site
            {
              OFFSET 1 0 0
            }
          }
          JOINT rightEye
          {
            OFFSET -3.6576 8.04674 8.04672
            CHANNELS 3 Zrotation Xrotation Yrotation
            End Site
            {
              OFFSET 1 0 0
            }
          }
        }
      }
      JOINT rCollar
      {
        OFFSET -2.68224 19.2634 -4.8768
        CHANNELS 3 Zrotation Xrotation Yrotation
        JOINT rShldr
        {
          OFFSET -8.77824 -1.95073 1.46304
          CHANNELS 3 Zrotation Xrotation Yrotation
          JOINT rForeArm
          {
            OFFSET -28.1742 -1.7115 0.48768
            CHANNELS 3 Zrotation Xrotation Yrotation
            JOINT rHand
            {
              OFFSET -22.5879 0.773209 7.07136
              CHANNELS 3 Zrotation Xrotation Yrotation
              JOINT rThumb1
              {
                OFFSET -1.2192 -0.487915 3.41376
                CHANNELS 3 Zrotation Xrotation Yrotation
                JOINT rThumb2
                {
                  OFFSET -3.37035 -0.52449 3.41376
                  CHANNELS 3 Zrotation Xrotation Yrotation
                  End Site
                  {
                    OFFSET -1.78271 -1.18214 1.43049
                  }
                }
              }
              JOINT rIndex1
              {
                OFFSET -7.75947 0.938293 5.60832
                CHANNELS 3 Zrotation Xrotation Yrotation
                JOINT rIndex2
                {
                  OFFSET -2.54057 -0.884171 1.56538
                  CHANNELS 3 Zrotation Xrotation Yrotation
                  End Site
                  {
                    OFFSET -1.62519 -0.234802 1.16502
                  }
                }
              }
              JOINT rMid1
              {
                OFFSET -8.24714 1.18213 3.41376
                CHANNELS 3 Zrotation Xrotation Yrotation
                JOINT rMid2
                {
                  OFFSET -3.10165 -0.590103 1.0647
                  CHANNELS 3 Zrotation Xrotation Yrotation
                  End Site
                  {
                    OFFSET -2.48547 -0.328903 0.83742
                  }
                }
              }
              JOINT rRing1
              {
                OFFSET -8.82822 0.546677 1.51678
                CHANNELS 3 Zrotation Xrotation Yrotation
                JOINT rRing2
                {
                  OFFSET -2.60934 -0.819778 -0.0198488
                  CHANNELS 3 Zrotation Xrotation Yrotation
                  End Site
                  {
                    OFFSET -2.33842 -0.294052 0.168128
                  }
                }
              }
              JOINT rPinky1
              {
                OFFSET -8.27202 -0.0477905 -0.4584
                CHANNELS 3 Zrotation Xrotation Yrotation
                JOINT rPinky2
                {
                  OFFSET -1.82734 -0.647385 -0.700984
                  CHANNELS 3 Zrotation Xrotation Yrotation
                  End Site
                  {
                    OFFSET -1.69225 -0.51767 -0.607171
                  }
                }
              }
            }
          }
        }
      }
      JOINT lCollar
      {
        OFFSET 2.68224 19.2634 -4.8768
        CHANNELS 3 Zrotation Xrotation Yrotation
        JOINT lShldr
        {
          OFFSET 8.77824 -1.95073 1.46304
          CHANNELS 3 Zrotation Xrotation Yrotation
          JOINT lForeArm
          {
            OFFSET 28.1742 -1.7115 0.48768
            CHANNELS 3 Zrotation Xrotation Yrotation
            JOINT lHand
            {
              OFFSET 22.5879 0.773209 7.07136
              CHANNELS 3 Zrotation Xrotation Yrotation
              JOINT lThumb1
              {
                OFFSET 1.2192 -0.487915 3.41376
                CHANNELS 3 Zrotation Xrotation Yrotation
                JOINT lThumb2
                {
                  OFFSET 3.37035 -0.52449 3.41376
                  CHANNELS 3 Zrotation Xrotation Yrotation
                  End Site
                  {
                    OFFSET 1.78271 -1.18214 1.43049
                  }
                }
              }
              JOINT lIndex1
              {
                OFFSET 7.75947 0.938293 5.60832
                CHANNELS 3 Zrotation Xrotation Yrotation
                JOINT lIndex2
                {
                  OFFSET 2.54057 -0.884171 1.56538
                  CHANNELS 3 Zrotation Xrotation Yrotation
                  End Site
                  {
                    OFFSET 1.62519 -0.234802 1.16502
                  }
                }
              }
              JOINT lMid1
              {
                OFFSET 8.24714 1.18213 3.41376
                CHANNELS 3 Zrotation Xrotation Yrotation
                JOINT lMid2
                {
                  OFFSET 3.10165 -0.590103 1.0647
                  CHANNELS 3 Zrotation Xrotation Yrotation
                  End Site
                  {
                    OFFSET 2.48547 -0.328903 0.83742
                  }
                }
              }
              JOINT lRing1
              {
                OFFSET 8.82822 0.546677 1.51678
                CHANNELS 3 Zrotation Xrotation Yrotation
                JOINT lRing2
                {
                  OFFSET 2.60934 -0.819778 -0.0198488
                  CHANNELS 3 Zrotation Xrotation Yrotation
                  End Site
                  {
                    OFFSET 2.33842 -0.294052 0.168128
                  }
                }
              }
              JOINT lPinky1
              {
                OFFSET 8.27202 -0.0477905 -0.4584
                CHANNELS 3 Zrotation Xrotation Yrotation
                JOINT lPinky2
                {
                  OFFSET 1.82734 -0.647385 -0.700984
                  CHANNELS 3 Zrotation Xrotation Yrotation
                  End Site
                  {
                    OFFSET 1.69225 -0.51767 -0.607171
                  }
                }
              }
            }
          }
        }
      }
    }
  }
  JOINT rButtock
  {
    OFFSET -8.77824 4.35084 1.2192
    CHANNELS 3 Zrotation Xrotation Yrotation
    JOINT rThigh
    {
      OFFSET 0 -1.70687 -2.19456
      CHANNELS 3 Zrotation Xrotation Yrotation
      JOINT rShin
      {
        OFFSET 0 -36.8199 0.73152
        CHANNELS 3 Zrotation Xrotation Yrotation
        JOINT rFoot
        {
          OFFSET 0.73152 -45.1104 -5.12064
          CHANNELS 3 Zrotation Xrotation Yrotation
          End Site
          {
            OFFSET -1.1221 -3.69964 12.103
          }
        }
      }
    }
  }
  JOINT lButtock
  {
    OFFSET 8.77824 4.35084 1.2192
    CHANNELS 3 Zrotation Xrotation Yrotation
    JOINT lThigh
    {
      OFFSET 0 -1.70687 -2.19456
      CHANNELS 3 Zrotation Xrotation Yrotation
      JOINT lShin
      {
        OFFSET 0 -36.8199 0.73152
        CHANNELS 3 Zrotation Xrotation Yrotation
        JOINT lFoot
        {
          OFFSET -0.73152 -45.1104 -5.12064
          CHANNELS 3 Zrotation Xrotation Yrotation
          End Site
          {
            OFFSET 1.1221 -3.69964 12.103
          }
        }
      }
    }
  }
}
MOTION
Frames:	4
Frame Time:	0.03333
0.02726816013455391 60.188316345214844 0.17224891483783722 -71.75930500030518 4.389048479497433 -62.74535000324249 -6.561422199010849 30.870745182037354 10.554618537425995 4.9811384081840515 -7.561630010604858 0.49174295738339424 -5.446666963398457 17.6717247068882 -0.012109503149986267 10.98705567419529 -24.685174226760864 -6.816447973251343 3.6033939197659492 -4.4127897173166275 1.3192015886306763 1.8847470358014107 0.06226044148206711 0.48952996730804443 -4.528244063258171 2.670440152287483 -3.567464053630829 24.13021445274353 17.250849902629852 16.871411204338074 -15.021569430828094 -15.368829667568207 51.54742240905762 -3.4645047783851624 2.493826076388359 -0.9768280014395714 8.35213802754879 1.338411569595337 -0.7388366013765335 -4.197577312588692 -4.825073406100273 4.412157386541367 -10.503887236118317 6.795886158943176 2.836730070412159 1.5631610713899136 0.12177832424640656 -2.1044598519802094 -3.9852774515748024 2.9853274673223495 -3.696664720773697 2.707735262811184 1.1281639337539673 4.384612776339054 -1.3119492307305336 4.904612638056278 4.986679181456566 8.771173506975174 -6.825727075338364 -0.10850675404071808 -0.43267451226711273 -9.238579273223877 1.6919173300266266 2.6349639147520065 2.151009924709797 0.9074731171131134 3.6560554057359695 2.178197130560875 3.8141196593642235 -47.906275391578674 9.028214290738106 -27.239790558815002 30.17454832792282 -29.6493262052536 -53.21395397186279 1.1493510380387306 -20.075089931488037 0.552549809217453 -0.03700844943523407 -2.285352386534214 -1.6093292646110058 -4.158808998763561 4.863949008285999 -4.375779256224632 -0.08984729647636414 -1.9948118180036545 -2.5583865121006966 -6.248350068926811 4.128480590879917 -7.777161598205566 3.423561528325081 2.957754023373127 1.957881823182106 3.340241052210331 2.030879147350788 1.4989176392555237 1.8939698114991188 3.4417901560664177 -5.933781936764717 -5.799888074398041 -2.752642147243023 5.139160081744194 0.26213832199573517 -1.701769083738327 -1.15901461802423 0.111863873898983 -1.5481757372617722 4.097846075892448 -10.606841146945953 1.008668839931488 5.726991668343544 -56.40796601772308 -31.485091745853424 -47.117469906806946 -20.34193217754364 41.20954513549805 25.229144990444183 10.289475470781326 -5.97644716501236 -14.965720474720001 -7.852724120020866 4.080873057246208 0.21023288369178772 56.83460354804993 -17.864271104335785 28.538679778575897 18.730191439390182 51.77176773548126 -29.95243728160858 -1.4672816544771194 -8.41229259967804 24.6822988986969
0.062209054827690125 62.00947189331055 0.2419227510690689 -27.91647434234619 -2.2308794036507607 -41.3877671957016 -3.0920036137104034 19.507930129766464 4.680950604379177 -4.394952356815338 -3.8599857687950134 -4.166157245635986 -4.095099158585072 12.630174905061722 1.8092391639947891 4.115643873810768 -22.18339204788208 7.0263683795928955 -21.731044203042984 -0.22040046751499176 -3.661918044090271 -2.9602129384875298 -2.687162049114704 -9.303520917892456 -5.907276347279549 4.685142561793327 -5.696306526660919 25.038737654685974 28.078235685825348 16.41330063343048 -4.409246519207954 -35.180467665195465 62.5171422958374 5.520074665546417 -15.096054375171661 1.0648909583687782 10.28774879872799 3.4122057259082794 -2.551717534661293 -1.833924874663353 -8.022148534655571 -7.490008324384689 -1.0939312353730202 8.992481231689453 7.175085470080376 13.626932054758072 8.2670409232378 -6.314618736505508 -3.1906140223145485 2.7361368387937546 -1.8183673918247223 5.008440278470516 3.6665086448192596 -0.9499979484826326 -11.994377374649048 8.079465329647064 -0.5637393146753311 1.2890522181987762 -1.6425511054694653 3.449513241648674 -2.4810077995061874 8.443585932254791 -7.1135227382183075 -7.620464935898781 7.376735955476761 -1.1400863528251648 4.115405157208443 8.388632163405418 10.890323147177696 -65.95455944538116 20.643723607063293 -25.720083117485046 25.85454225540161 -29.449270963668823 -76.25600695610046 1.17658082395792 -13.965656161308289 -8.851747065782547 -5.204501375555992 -1.7542589083313942 0.02547847107052803 -3.33661537617445 7.6407598704099655 -2.322666272521019 -3.41630682349205 0.20381636917591095 -7.007618397474289 -11.798501014709473 1.6575545445084572 0.9842013940215111 1.8255550414323807 3.064468391239643 4.314980283379555 3.6830783262848854 0.7838450744748116 7.004355490207672 8.86410266160965 3.967731110751629 2.9995297640562057 -3.801169954240322 -3.6742518469691277 11.322712004184723 11.38832688331604 6.393711715936661 0.30978315509855747 1.1210021004080772 6.999960020184517 -3.702505901455879 0.39780663326382637 -1.2127581238746643 5.559648647904396 -36.47935688495636 -26.878636479377747 -34.809662997722626 -56.15253388881683 57.84404754638672 49.215617179870605 18.74451979994774 -13.968614637851715 -1.5207293629646301 -8.880578801035881 3.8126521557569504 -14.824321120977402 37.92156994342804 -42.09851235151291 41.129591166973114 60.10051488876343 60.24519324302673 -49.70168709754944 0.3434910625219345 -17.366203665733337 6.139588505029678
0.07423286512494087 74.61619567871094 0.7248130589723587 -46.95306122303009 -9.717466235160828 -23.145334124565125 -4.362485557794571 29.731171131134033 6.92225307226181 7.480463683605194 1.0104578733444214 1.4613641984760761 -2.252434976398945 11.668983846902847 1.3072047382593155 14.195127189159393 -33.08525741100311 -15.94192922115326 -10.781734585762024 -8.147781863808632 -2.8404325246810913 5.005819089710712 -8.841844350099564 -1.898585557937622 -7.0959509164094925 9.473898187279701 -0.8432355523109436 23.100554645061493 16.370082199573517 17.73091435432434 -10.965164825320244 -27.217595279216766 55.37565350532532 -1.7810270190238953 -9.617063105106354 0.8343711867928505 9.589516147971153 2.3702774941921234 -0.6247461587190628 2.677582874894142 -4.871644601225853 -4.374788850545883 -9.487367570400238 14.350520968437195 7.597136422991753 5.376125201582909 7.103284075856209 2.2303251922130585 -10.616051852703094 7.622641548514366 -2.4510790407657623 6.4617955684661865 3.6575447022914886 4.662218727171421 -12.19281792640686 4.085369445383549 4.773363098502159 2.6536957919597626 0.5329886265099049 2.8259264677762985 -2.0979347079992294 -7.85960465669632 -1.0861484706401825 1.1595538258552551 10.303809195756912 -1.3943839073181152 -0.22904103621840477 7.641620859503746 5.843038782477379 -60.39625525474548 17.892184853553772 -24.476847052574158 28.08632254600525 -34.102951884269714 -67.43583619594574 4.274559058248997 -24.385775327682495 -8.821534663438797 3.5318825393915176 5.247089825570583 1.8916388042271137 -3.2289407774806023 2.0479943230748177 -2.9277511686086655 -6.388639658689499 -12.440718412399292 -4.05144352465868 -7.846769616007805 0.035097040235996246 2.2445928677916527 -0.5142056196928024 -1.034826748073101 8.644360676407814 7.555576264858246 -0.6046916171908379 6.457294821739197 9.241800606250763 7.093540281057358 -4.260442927479744 -11.00191444158554 2.2814779356122017 9.206724688410759 9.867229387164116 5.723470598459244 0.062220627442002296 0.8579954132437706 4.695395305752754 -4.990722611546516 -9.401032626628876 5.2860090136528015 3.131895437836647 -35.80011427402496 -37.25557208061218 -33.53259891271591 -28.592535853385925 60.0837242603302 20.461676716804504 13.461758941411972 -6.532528102397919 -22.137775719165802 -7.221847102046013 3.928067609667778 -10.717022269964218 32.53558695316315 -19.958716928958893 29.659167230129242 29.734620451927185 55.879855155944824 -25.651351511478424 9.914583787322044 -18.174578547477722 26.269404888153076
0.08045989274978638 72.8918685913086 1.7693202048540115 -16.345541328191757 -10.112721920013428 18.487806916236877 -3.7382228672504425 26.04682445526123 6.370025128126144 4.26256388425827 -2.200186550617218 -0.9732205979526043 -5.950436443090439 13.279811292886734 -0.9046735614538193 8.676745668053627 -32.43817985057831 -9.63377058506012 -7.722838819026947 -5.940322503447533 -4.635297060012817 0.7358281686902046 -6.486268043518066 -3.275578022003174 -5.369552448391914 6.053518429398537 0.21728843450546265 20.78871041536331 18.48286360502243 21.457476317882538 -4.825156554579735 -26.205383241176605 57.949758768081665 6.663417220115662 -4.5520614087581635 -3.802674673497677 8.40708039700985 0.5657167732715607 0.3059723228216171 4.176953807473183 -11.043533608317375 0.6210131943225861 -7.317417562007904 9.966976046562195 8.497672006487846 6.889438256621361 8.054701164364815 1.9684986770153046 -6.219578683376312 6.651419028639793 -1.339373141527176 3.0687203630805016 -0.42420342564582825 -0.9457761514931917 -6.056132912635803 1.7253581061959267 2.255278453230858 2.2379373013973236 -2.4582108668982983 0.3441750258207321 0.6565839797258377 -1.3610923290252686 -2.83328577876091 0.5114758014678955 8.709718734025955 0.5140212178230286 -5.976988300681114 4.2518772929906845 5.904740318655968 -55.03028690814972 27.77694046497345 -24.39390242099762 33.22567105293274 -33.71279239654541 -74.22240972518921 8.15547376871109 -29.55625355243683 -6.880221515893936 0.20486511290073395 0.34967657178640366 1.0118071921169758 -2.2566507384181023 1.972554512321949 1.5130642801523209 -6.111765950918198 -13.01656723022461 0.6140444800257683 -7.221562787890434 5.080342926084995 -0.6190139427781105 1.2944776564836502 3.5699306800961494 1.7742148786783218 6.932724416255951 2.169313319027424 6.385526955127716 8.7432262301445 7.703176885843277 -6.97515495121479 -11.170303523540497 2.4759193137288094 8.07022176682949 5.425880178809166 4.381663352251053 -0.3050220664590597 7.463091015815735 2.485705688595772 -0.8058810979127884 -4.798308312892914 4.4001504778862 8.909185901284218 -35.002822279930115 -37.52486318349838 -33.0447319149971 -47.39724576473236 60.26799201965332 30.677883625030518 11.160890311002731 -5.130505263805389 -17.32607513666153 -8.281641528010368 4.486058279871941 -4.795369952917099 27.280152440071106 -25.719857811927795 27.564820647239685 30.725181698799133 62.25333094596863 -32.096461057662964 11.50257021188736 -12.086564898490906 21.126077324151993
